<svg width="24" height="24" viewBox="0 0 24 24" fill="none" xmlns="http://www.w3.org/2000/svg">
<g id="arrow-left">
<path id="Vector" d="M10.1003 6.46026C10.3932 6.16737 10.3932 5.69249 10.1003 5.3996C9.80744 5.10671 9.33256 5.10671 9.03967 5.3996L2.96967 11.4696C2.82902 11.6103 2.75 11.801 2.75 11.9999C2.75 12.1988 2.82902 12.3896 2.96967 12.5303L9.03967 18.6003C9.33256 18.8932 9.80744 18.8932 10.1003 18.6003C10.3932 18.3074 10.3932 17.8325 10.1003 17.5396L5.31073 12.75H20.5C20.9142 12.75 21.25 12.4142 21.25 12C21.25 11.5858 20.9142 11.25 20.5 11.25H5.31059L10.1003 6.46026Z" fill="#999999"/>
</g>
</svg>
