<svg width="24" height="24" viewBox="0 0 24 24" fill="none" xmlns="http://www.w3.org/2000/svg">
<g id="arrow-right">
<path id="Vector" d="M14.9603 5.3996C14.6674 5.10671 14.1926 5.10671 13.8997 5.3996C13.6068 5.69249 13.6068 6.16737 13.8997 6.46026L18.6894 11.25H3.5C3.08579 11.25 2.75 11.5858 2.75 12C2.75 12.4142 3.08579 12.75 3.5 12.75H18.6893L13.8997 17.5396C13.6068 17.8325 13.6068 18.3074 13.8997 18.6003C14.1926 18.8932 14.6674 18.8932 14.9603 18.6003L21.0303 12.5303C21.171 12.3896 21.25 12.1988 21.25 11.9999C21.25 11.801 21.171 11.6103 21.0303 11.4696L14.9603 5.3996Z" fill="#333333"/>
</g>
</svg>
