<svg width="32" height="32" viewBox="0 0 32 32" fill="none" xmlns="http://www.w3.org/2000/svg">
<g id="bag">
<g id="Vector">
<path d="M19.3274 16C19.3274 15.2636 19.9244 14.6667 20.6608 14.6667H20.6727C21.4091 14.6667 22.0061 15.2636 22.0061 16C22.0061 16.7364 21.4091 17.3333 20.6727 17.3333H20.6608C19.9244 17.3333 19.3274 16.7364 19.3274 16Z" fill="#666666"/>
<path d="M11.3261 14.6667C10.5897 14.6667 9.99279 15.2636 9.99279 16C9.99279 16.7364 10.5897 17.3333 11.3261 17.3333H11.3381C12.0745 17.3333 12.6714 16.7364 12.6714 16C12.6714 15.2636 12.0745 14.6667 11.3381 14.6667H11.3261Z" fill="#666666"/>
<path fill-rule="evenodd" clip-rule="evenodd" d="M9.00011 9.74929V8.93334C9.00011 5.47734 11.7482 2.0455 15.3187 1.71118C19.4871 1.30783 23.0001 4.59174 23.0001 8.68001V9.74927C25.0735 9.96984 26.5577 10.6335 27.5022 11.7563C28.6732 13.1485 28.7828 14.9783 28.5941 16.6833L28.5925 16.6974L27.5935 24.6889C27.4461 26.0572 27.1009 27.5559 25.8797 28.6716C24.6648 29.7815 22.7827 30.3333 20.0002 30.3333H12.0002C9.21774 30.3333 7.33558 29.7815 6.12072 28.6716C4.89946 27.5559 4.55426 26.0571 4.40685 24.6888L3.40793 16.6974L3.40627 16.6833C3.2176 14.9783 3.32723 13.1485 4.49826 11.7563C5.44264 10.6335 6.92678 9.96988 9.00011 9.74929ZM15.51 3.70201C18.4875 3.41315 21.0001 5.75554 21.0001 8.68001V9.66667H11.0001V8.93334C11.0001 6.38994 13.0778 3.92902 15.5064 3.70235L15.51 3.70201ZM6.39248 24.4493L5.39338 16.4565C5.22334 14.9117 5.40078 13.7904 6.02882 13.0437C6.64827 12.3072 7.93759 11.6667 10.6669 11.6667H21.3335C24.0628 11.6667 25.3521 12.3072 25.9716 13.0437C26.5996 13.7903 26.7771 14.9116 26.6071 16.4563L25.6079 24.4493L25.6059 24.4668C25.4728 25.7094 25.1968 26.5865 24.5307 27.195C23.8556 27.8118 22.5777 28.3333 20.0002 28.3333H12.0002C9.42267 28.3333 8.14483 27.8118 7.46969 27.195C6.8036 26.5865 6.52765 25.7094 6.39451 24.4668L6.39248 24.4493Z" fill="#666666"/>
</g>
</g>
</svg>
