<svg width="32" height="32" viewBox="0 0 32 32" fill="none" xmlns="http://www.w3.org/2000/svg">
<g id="profile">
<g id="Vector">
<path fill-rule="evenodd" clip-rule="evenodd" d="M15.9999 1.66667C12.1662 1.66667 9.07992 4.76919 9.07992 8.58667C9.07992 12.3245 12.026 15.3679 15.7397 15.4928C15.7811 15.4942 15.8225 15.493 15.8638 15.4892C15.9534 15.4811 16.0494 15.4819 16.1137 15.4884C16.158 15.4928 16.2024 15.4943 16.2468 15.4928C19.9612 15.3679 22.9044 12.3247 22.9199 8.59084L22.9199 8.58667C22.9199 4.76772 19.8189 1.66667 15.9999 1.66667ZM11.0799 8.58667C11.0799 5.87082 13.2737 3.66667 15.9999 3.66667C18.7136 3.66667 20.9188 5.87119 20.9199 8.58463C20.9078 11.2308 18.8411 13.3746 16.2359 13.4917C16.0783 13.4803 15.9112 13.4808 15.7531 13.4918C13.1454 13.376 11.0799 11.2307 11.0799 8.58667Z" fill="#666666"/>
<path fill-rule="evenodd" clip-rule="evenodd" d="M23.4485 18.5818C21.4224 17.2286 18.8007 16.5833 16.2298 16.5833C13.6585 16.5833 11.0318 17.2287 8.99386 18.5799L8.99018 18.5823C7.16972 19.801 6.12646 21.5033 6.12646 23.3317C6.12646 25.1604 7.17008 26.8597 8.99156 28.0719C11.0237 29.4312 13.6482 30.08 16.2198 30.08C18.7919 30.08 21.4169 29.4309 23.4492 28.0711C25.2697 26.8525 26.3131 25.1501 26.3131 23.3217C26.3131 21.4931 25.2697 19.7939 23.4485 18.5818ZM8.12646 23.3317C8.12646 22.3239 8.69604 21.1867 10.1009 20.2456C11.7428 19.1576 13.9619 18.5833 16.2298 18.5833C18.4989 18.5833 20.7105 19.1581 22.3377 20.2449L22.3392 20.2459C23.7438 21.1804 24.3131 22.3141 24.3131 23.3217C24.3131 24.3299 23.7431 25.4677 22.3368 26.409C20.7025 27.5025 18.4876 28.08 16.2198 28.08C13.9519 28.08 11.7369 27.5024 10.1026 26.4089L10.1004 26.4074C8.69581 25.473 8.12646 24.3393 8.12646 23.3317Z" fill="#666666"/>
</g>
</g>
</svg>
